<?xml version="1.0" encoding="utf-8"?>
<!-- Generator: Adobe Illustrator 27.5.0, SVG Export Plug-In . SVG Version: 6.00 Build 0)  -->
<svg version="1.1" xmlns="http://www.w3.org/2000/svg" xmlns:xlink="http://www.w3.org/1999/xlink" x="0px" y="0px"
	 viewBox="0 0 500 500" style="enable-background:new 0 0 500 500;" xml:space="preserve">
<g id="BACKGROUND">
	<rect style="fill:#A1A1A1;" width="500" height="500"/>
</g>
<g id="OBJECTS">
	<g>
		<path style="fill:#999999;" d="M112.892,339.487c-24.555,0-44.46,24.241-44.46,54.145h88.92
			C157.352,363.728,137.446,339.487,112.892,339.487z"/>
		<path style="fill:#999999;" d="M383.116,321.215c-26.76,0-48.453,32.422-48.453,72.416h96.905
			C431.568,353.637,409.875,321.215,383.116,321.215z"/>
		<path style="fill:#999999;" d="M240.147,165.905c-70.281,0-127.256,101.956-127.256,227.726h254.511
			C367.403,267.862,310.429,165.905,240.147,165.905z"/>
	</g>
	<g>
		<path style="fill:#B8B6B7;" d="M269.891,387.122H188.9c-3.348,0-6.063,2.714-6.063,6.063l0,0h89.212L269.891,387.122z"/>
		<polygon style="fill:#D6D4D5;" points="295.354,393.185 246.852,393.185 219.324,315.844 267.826,315.844 		"/>
		<polygon style="fill:#B8B6B7;" points="288.763,393.185 240.261,393.185 212.733,315.844 261.235,315.844 		"/>
		<path style="fill:#B8B6B7;" d="M137.945,358.07l230.003,0c6.396,0,12.133-5.169,12.815-11.565
			c3.362-31.528,12.658-118.724,16.018-150.251c0.682-6.396-3.952-11.564-10.348-11.564l-229.998,0
			c-6.396,0-12.134,5.185-12.817,11.581l-16.02,150.217C126.917,352.885,131.549,358.07,137.945,358.07z"/>
		<path style="fill:#20211D;" d="M396.785,196.272l-13.8,129.403l-253.166,0l13.8-129.403c0.682-6.396,6.42-11.581,12.817-11.581
			l230.003,0C392.835,184.691,397.467,189.876,396.785,196.272z"/>
		<path style="fill:#E0E0E0;" d="M128.239,358.07l230.003,0c6.396,0,12.133-5.169,12.815-11.565
			c3.362-31.528,12.659-118.724,16.018-150.251c0.681-6.396-3.952-11.564-10.348-11.564l-229.998,0
			c-6.396,0-12.134,5.185-12.817,11.581l-16.02,150.217C117.21,352.885,121.842,358.07,128.239,358.07z"/>
		<path style="fill:#262823;" d="M387.078,196.272l-13.8,129.403l-253.166,0l13.8-129.403c0.682-6.396,6.42-11.581,12.817-11.581
			l230.004,0C383.128,184.691,387.76,189.876,387.078,196.272z"/>
		<g>
			<g>
				<g>
					<polygon style="fill:#323C46;" points="379.066,193.218 365.729,318.285 127.532,318.285 140.87,193.218 					"/>
				</g>
			</g>
		</g>
		<path style="fill:#B8B6B7;" d="M140.87,193.218h46.061l4.425,13.272c1.97,5.908,7.5,9.894,13.728,9.894h171.511l-10.867,101.901
			l-238.196,0L140.87,193.218z"/>
		<polygon style="fill:#06B08D;" points="148.34,289.581 350.31,289.581 348.247,308.925 146.277,308.925 		"/>
		<polygon style="fill:#FFFFFF;" points="277.508,223.185 271.272,281.652 350.932,281.652 357.168,223.185 		"/>
		<polygon style="fill:#FFDB7A;" points="277.508,223.185 357.168,223.185 355.105,242.529 275.445,242.529 		"/>
		<polygon style="fill:#F77B55;" points="155.197,223.185 148.962,281.652 260.315,281.652 266.55,223.185 		"/>
		<g>
			<text transform="matrix(1 0 0 1 169.5451 255.7515)" style="fill:#FFFFFF; font-family:'Montserrat-Bold'; font-size:12px;">WEB DESIGN</text>
		</g>
		<path style="fill:#D6D4D5;" d="M293.196,387.122h-61.316c-3.348,0-6.063,2.714-6.063,6.063l0,0h69.537L293.196,387.122z"/>
		<polygon style="opacity:0.2;fill:#303231;" points="227.443,358.071 282.855,358.071 286.031,366.994 230.939,366.994 		"/>
		<polygon style="opacity:0.1;fill:#FFFFFF;" points="140.87,193.218 127.532,318.285 242.518,318.285 272.049,193.218 		"/>
		<polygon style="opacity:0.1;fill:#FFFFFF;" points="303.528,193.218 273.997,318.285 316.582,318.285 346.113,193.218 		"/>
	</g>
	<polygon style="fill:#FFFFFF;" points="214.902,199.185 330.394,199.185 329.196,210.417 213.705,210.417 	"/>
	<g>
		<circle style="fill:#F7622A;" cx="342.946" cy="204.801" r="3.167"/>
		<path style="fill:#06B08D;" d="M358.952,204.801c0,1.749-1.418,3.167-3.167,3.167c-1.749,0-3.167-1.418-3.167-3.167
			c0-1.749,1.418-3.167,3.167-3.167C357.534,201.634,358.952,203.052,358.952,204.801z"/>
		<path style="fill:#FCD740;" d="M371.79,204.801c0,1.749-1.418,3.167-3.167,3.167c-1.749,0-3.167-1.418-3.167-3.167
			c0-1.749,1.418-3.167,3.167-3.167C370.372,201.634,371.79,203.052,371.79,204.801z"/>
	</g>
	<g>
		<g>
			<polygon style="fill:#363F48;" points="341.465,393.579 346.578,393.579 320.059,315.449 314.946,315.449 			"/>
			<polygon style="fill:#363F48;" points="319.606,393.579 324.719,393.579 298.2,315.449 293.087,315.449 			"/>
			<polygon style="fill:#363F48;" points="342.603,382.134 340.867,377.021 313.986,377.021 315.721,382.134 			"/>
			<polygon style="fill:#363F48;" points="336.931,365.425 335.196,360.312 308.315,360.312 310.05,365.425 			"/>
			<polygon style="fill:#363F48;" points="331.26,348.716 329.525,343.603 302.643,343.603 304.379,348.716 			"/>
			<polygon style="fill:#363F48;" points="325.589,332.008 323.853,326.895 296.972,326.895 298.707,332.008 			"/>
		</g>
		<g>
			<g>
				<g>
					<polygon style="fill:#3F5469;" points="271.683,393.579 266.57,393.579 293.089,315.449 298.202,315.449 					"/>
				</g>
				<g>
					<polygon style="fill:#3F5469;" points="293.542,393.579 288.429,393.579 314.948,315.449 320.061,315.449 					"/>
				</g>
				<g>
					<polygon style="fill:#3F5469;" points="270.546,382.134 272.281,377.021 299.162,377.021 297.427,382.134 					"/>
				</g>
				<g>
					<polygon style="fill:#3F5469;" points="276.217,365.425 277.952,360.312 304.834,360.312 303.098,365.425 					"/>
				</g>
				<g>
					<polygon style="fill:#3F5469;" points="281.888,348.716 283.624,343.603 310.505,343.603 308.769,348.716 					"/>
				</g>
				<g>
					<polygon style="fill:#3F5469;" points="287.559,332.008 289.295,326.895 316.176,326.895 314.441,332.008 					"/>
				</g>
			</g>
		</g>
	</g>
	<path style="fill:#737373;" d="M451.022,403.851H48.978c-2.822,0-5.11-2.288-5.11-5.11l0,0c0-2.822,2.288-5.11,5.11-5.11h402.044
		c2.822,0,5.11,2.288,5.11,5.11l0,0C456.132,401.564,453.844,403.851,451.022,403.851z"/>
	<g>
		<g>
			<g>
				<g>
					<polyline style="fill:none;stroke:#FFFFFF;stroke-width:2;stroke-miterlimit:10;" points="345.895,170.323 351.895,170.323 
						351.258,176.29 					"/>
					
						<line style="fill:none;stroke:#FFFFFF;stroke-width:2;stroke-miterlimit:10;stroke-dasharray:12.6418,12.6418;" x1="349.918" y1="188.86" x2="339.864" y2="283.139"/>
					<polyline style="fill:none;stroke:#FFFFFF;stroke-width:2;stroke-miterlimit:10;" points="339.193,289.424 338.557,295.391 
						332.557,295.391 					"/>
					
						<line style="fill:none;stroke:#FFFFFF;stroke-width:2;stroke-miterlimit:10;stroke-dasharray:11.9051,11.9051;" x1="320.652" y1="295.391" x2="112.313" y2="295.391"/>
					<polyline style="fill:none;stroke:#FFFFFF;stroke-width:2;stroke-miterlimit:10;" points="106.361,295.391 100.361,295.391 
						100.997,289.424 					"/>
					
						<line style="fill:none;stroke:#FFFFFF;stroke-width:2;stroke-miterlimit:10;stroke-dasharray:12.6418,12.6418;" x1="102.338" y1="276.854" x2="112.392" y2="182.575"/>
					<polyline style="fill:none;stroke:#FFFFFF;stroke-width:2;stroke-miterlimit:10;" points="113.062,176.29 113.698,170.323 
						119.698,170.323 					"/>
					
						<line style="fill:none;stroke:#FFFFFF;stroke-width:2;stroke-miterlimit:10;stroke-dasharray:11.9051,11.9051;" x1="131.603" y1="170.323" x2="339.942" y2="170.323"/>
				</g>
			</g>
		</g>
	</g>
	<g>
		<path style="fill:#121D2F;" d="M239.69,274.071l-0.1,0.1c-7.8,0.64-14.98,4.86-19.67,11.01c-2.93,3.81-4.89,8.37-5.44,13.26
			l-8.02,70.82c-1.52,13.46-13.67,24.37-27.13,24.37h-51.2l10.78-95.24c0.55-4.87,2.49-9.41,5.4-13.21
			c5.08-6.68,13.12-11.11,21.68-11.11H239.69z"/>
		<g>
			<polygon style="fill:#F7622A;" points="158.857,304.675 150.556,304.675 150.942,301.254 159.243,301.254 			"/>
			<polygon style="fill:#FCD740;" points="178.42,304.675 163.443,304.675 163.829,301.254 178.806,301.254 			"/>
			<polygon style="fill:#FFFFFF;" points="186.545,311.946 155.438,311.946 155.824,308.525 186.931,308.525 			"/>
			<polygon style="fill:#3FC9EE;" points="199.433,311.946 191.132,311.946 191.517,308.525 199.818,308.525 			"/>
			<polygon style="fill:#FFFFFF;" points="185.726,319.216 154.618,319.216 155.004,315.795 186.111,315.795 			"/>
			<polygon style="fill:#3FC9EE;" points="198.613,319.216 190.312,319.216 190.698,315.795 198.999,315.795 			"/>
			<polygon style="fill:#FFFFFF;" points="184.906,326.487 153.798,326.487 154.184,323.065 185.292,323.065 			"/>
			<polygon style="fill:#3FC9EE;" points="197.793,326.487 189.492,326.487 189.878,323.065 198.179,323.065 			"/>
			<polygon style="fill:#F7622A;" points="155.578,333.757 147.277,333.757 147.663,330.336 155.964,330.336 			"/>
			<polygon style="fill:#FCD740;" points="175.141,333.757 160.165,333.757 160.55,330.336 175.527,330.336 			"/>
			<polygon style="fill:#3FC9EE;" points="167.713,341.028 152.159,341.028 152.545,337.607 168.099,337.607 			"/>
			<polygon style="fill:#FFFFFF;" points="196.154,341.028 172.299,341.028 172.685,337.607 196.54,337.607 			"/>
			<polygon style="fill:#3FC9EE;" points="166.893,348.298 151.339,348.298 151.725,344.877 167.279,344.877 			"/>
			<polygon style="fill:#FFFFFF;" points="195.334,348.298 171.48,348.298 171.865,344.877 195.72,344.877 			"/>
			<polygon style="fill:#3FC9EE;" points="166.073,355.569 150.52,355.569 150.905,352.147 166.459,352.147 			"/>
			<polygon style="fill:#FFFFFF;" points="194.515,355.569 170.66,355.569 171.046,352.147 194.9,352.147 			"/>
		</g>
		<path style="fill:#323C46;" d="M239.69,274.071l-0.1,0.1c-7.8,0.64-14.98,4.86-19.67,11.01h-75.61
			c5.08-6.68,13.12-11.11,21.68-11.11H239.69z"/>
		<g>
			<path style="fill:#F7622A;" d="M205.958,278.876c0,0.874-0.709,1.583-1.584,1.583c-0.875,0-1.583-0.709-1.583-1.583
				c0-0.875,0.709-1.584,1.583-1.584C205.249,277.293,205.958,278.002,205.958,278.876z"/>
			<path style="fill:#06B08D;" d="M212.377,278.876c0,0.874-0.709,1.583-1.584,1.583c-0.875,0-1.583-0.709-1.583-1.583
				c0-0.875,0.709-1.584,1.583-1.584C211.668,277.293,212.377,278.002,212.377,278.876z"/>
			<path style="fill:#FCD740;" d="M218.797,278.876c0,0.874-0.709,1.583-1.584,1.583c-0.874,0-1.583-0.709-1.583-1.583
				c0-0.875,0.709-1.584,1.583-1.584C218.088,277.293,218.797,278.002,218.797,278.876z"/>
		</g>
		<path style="fill:#1D3A61;" d="M157.232,369.18h-51.197c-1.528,13.502,8.179,24.448,21.681,24.448h51.125l0.008-0.073h0
			C165.386,393.555,155.708,382.642,157.232,369.18z"/>
	</g>
	<path style="fill:#121D2F;" d="M132.592,173.14v-7.621l-4.624-0.784c-0.24-0.737-0.535-1.448-0.882-2.129l2.715-3.824l-5.389-5.389
		l-3.824,2.715c-0.681-0.347-1.393-0.642-2.129-0.882l-0.784-4.624h-3.811h-3.811l-0.784,4.624c-0.737,0.24-1.448,0.535-2.129,0.882
		l-3.824-2.715l-5.389,5.389l2.715,3.824c-0.347,0.681-0.642,1.393-0.882,2.129l-4.624,0.784v7.621l4.624,0.784
		c0.24,0.737,0.535,1.448,0.882,2.129l-2.715,3.824l5.389,5.389l3.824-2.715c0.681,0.347,1.393,0.642,2.129,0.882l0.784,4.624h3.811
		h3.811l0.784-4.624c0.737-0.24,1.448-0.535,2.129-0.882l3.824,2.715l5.389-5.389l-2.715-3.824c0.347-0.681,0.642-1.393,0.882-2.129
		L132.592,173.14z M113.864,176.467c-3.942,0-7.138-3.196-7.138-7.138s3.196-7.138,7.138-7.138s7.137,3.196,7.137,7.138
		S117.806,176.467,113.864,176.467z"/>
	<path style="fill:#FFFFFF;" d="M145.088,198.565v-4.804l-2.915-0.494c-0.151-0.464-0.337-0.913-0.556-1.342l1.712-2.411
		l-3.397-3.397l-2.411,1.712c-0.429-0.219-0.878-0.405-1.342-0.556l-0.494-2.915h-2.402h-2.402l-0.494,2.915
		c-0.464,0.151-0.913,0.337-1.342,0.556l-2.411-1.712l-3.397,3.397l1.712,2.411c-0.219,0.429-0.405,0.878-0.556,1.342l-2.915,0.494
		v4.804l2.915,0.494c0.151,0.464,0.337,0.913,0.556,1.342l-1.712,2.411l3.397,3.397l2.411-1.712
		c0.429,0.219,0.878,0.405,1.342,0.556l0.494,2.915h2.402h2.402l0.494-2.915c0.464-0.151,0.913-0.337,1.342-0.556l2.411,1.712
		l3.397-3.397l-1.712-2.411c0.219-0.429,0.405-0.878,0.556-1.342L145.088,198.565z M133.284,200.662
		c-2.485,0-4.499-2.014-4.499-4.499c0-2.485,2.014-4.499,4.499-4.499c2.485,0,4.499,2.014,4.499,4.499
		C137.782,198.648,135.768,200.662,133.284,200.662z"/>
	<g>
		<g>
			<g>
				<g>
					<path style="fill:#FFFFFF;" d="M241.771,129.809c-9.19,0-16.64,6.322-16.64,14.121h33.281
						C258.411,136.131,250.961,129.809,241.771,129.809z"/>
				</g>
				<g>
					<path style="fill:#FFFFFF;" d="M342.909,125.044c-10.016,0-18.135,8.455-18.135,18.886h36.269
						C361.044,133.499,352.925,125.044,342.909,125.044z"/>
				</g>
				<g>
					<path style="fill:#FFFFFF;" d="M290.096,96.149c-25.92,0-46.932,21.392-46.932,47.781h93.864
						C337.028,117.541,316.016,96.149,290.096,96.149z"/>
				</g>
			</g>
		</g>
		<g>
			<rect x="276.045" y="132.18" style="fill:#06B08D;" width="21.424" height="27.848"/>
			<polygon style="fill:#06B08D;" points="286.757,180.882 275.362,165.905 263.967,150.929 286.757,150.929 309.546,150.929 
				298.151,165.905 			"/>
		</g>
	</g>
	<g>
		<g>
			<polygon style="fill:#3FC9EE;" points="294.589,271.387 404.223,271.387 406.031,252.418 296.398,252.418 			"/>
		</g>
		<g>
			<polygon style="fill:#FFFFFF;" points="320.061,268.053 397.277,268.053 398.451,255.751 321.234,255.751 			"/>
		</g>
		<g>
			<g>
				<path style="fill:#FFFFFF;" d="M307.658,266.905c-1.512,0-2.932-0.588-4.001-1.658c-2.206-2.207-2.206-5.796,0-8.003
					c2.206-2.206,5.796-2.208,8.004,0l0,0c2.206,2.207,2.206,5.796,0,8.003C310.591,266.317,309.17,266.905,307.658,266.905z
					 M307.658,256.61c-1.188,0-2.376,0.451-3.28,1.356c-1.809,1.808-1.809,4.752,0,6.56c0.876,0.876,2.041,1.359,3.28,1.359
					c1.239,0,2.404-0.482,3.28-1.359c1.809-1.808,1.809-4.752,0-6.56C310.034,257.062,308.846,256.61,307.658,256.61z"/>
				
					<rect x="312.273" y="264.272" transform="matrix(0.7072 -0.707 0.707 0.7072 -96.7467 299.1132)" style="fill:#FFFFFF;" width="1.021" height="4.197"/>
			</g>
		</g>
	</g>
</g>
<g id="DESIGNED_BY_FREEPIK">
	<g>
		<g id="XMLID_319_">
			<g id="XMLID_338_">
				<path id="XMLID_346_" style="fill:#1C1C1B;" d="M260.104,465.465c-0.432,0.443-0.803,0.931-1.108,1.453l-0.465-0.241
					c-0.067-0.298-0.349-0.503-0.659-0.466c-0.331,0.039-0.568,0.339-0.529,0.67c0.039,0.331,0.339,0.568,0.67,0.529
					c0.065-0.008,0.127-0.026,0.183-0.052l0.452,0.234c-0.251,0.554-0.433,1.139-0.539,1.744l0.747,0.132
					c0.23-1.306,0.85-2.507,1.792-3.473L260.104,465.465z"/>
				<path id="XMLID_345_" style="fill:#1C1C1B;" d="M265.592,463.163c-0.171,0-0.341,0.006-0.51,0.017l-0.074-0.626
					c0.188-0.149,0.296-0.389,0.266-0.645c-0.046-0.393-0.402-0.674-0.795-0.628c-0.393,0.046-0.674,0.402-0.628,0.795
					c0.03,0.254,0.189,0.461,0.405,0.564l0.073,0.624c-0.714,0.116-1.403,0.332-2.06,0.646l0.327,0.684
					c0.934-0.447,1.942-0.673,2.995-0.673c0.496,0,0.993,0.053,1.475,0.158l0.161-0.741
					C266.692,463.222,266.142,463.163,265.592,463.163z"/>
				<path id="XMLID_344_" style="fill:#1C1C1B;" d="M272.194,465.711c0.331-0.04,0.566-0.341,0.526-0.672
					c-0.04-0.331-0.341-0.566-0.672-0.526c-0.309,0.038-0.535,0.304-0.53,0.609l-0.416,0.363c-0.418-0.43-0.89-0.813-1.408-1.139
					l-0.404,0.641c1.134,0.715,2.021,1.726,2.563,2.925l0.691-0.313c-0.251-0.554-0.568-1.072-0.942-1.545l0.402-0.351
					C272.065,465.716,272.129,465.719,272.194,465.711z"/>
				<path id="XMLID_343_" style="fill:#1C1C1B;" d="M265.044,473.372c-0.386,0.023-0.775,0.035-1.157,0.035
					c-0.88,0-1.733-0.061-2.478-0.179c-0.39-0.062-0.846-0.155-1.27-0.292c1.046,1.861,3.069,3.125,5.388,3.125
					c2.855,0,5.262-1.916,5.95-4.504c-0.682,0.449-1.505,0.825-2.459,1.123C267.839,473.047,266.464,473.286,265.044,473.372z"/>
				<path id="XMLID_339_" style="fill:#1C1C1B;" d="M265.592,464.68c-3.352,0-6.08,2.666-6.08,5.943
					c0,0.426,0.046,0.849,0.137,1.261c0.673,0.483,2.706,0.89,5.348,0.731c2.879-0.173,5.297-0.957,6.672-2.159
					c-0.005-0.195-0.021-0.39-0.045-0.582C271.244,466.913,268.65,464.68,265.592,464.68z M263.432,471.194
					c-1.02,0-1.85-0.83-1.85-1.85c0-1.02,0.83-1.85,1.85-1.85c1.02,0,1.85,0.83,1.85,1.85
					C265.282,470.365,264.452,471.194,263.432,471.194z M268.17,470.286c-0.75,0-1.36-0.61-1.36-1.36s0.61-1.361,1.36-1.361
					c0.75,0,1.361,0.61,1.361,1.361S268.92,470.286,268.17,470.286z"/>
			</g>
			<path id="XMLID_336_" style="fill:#1C1C1B;" d="M281.595,466.547c-0.295-0.116-0.805-0.309-1.382-0.237
				c-0.551,0.069-0.844,0.341-0.844,1.007v0.866h2.228v1.717h-2.228v5.455h-1.932v-5.455h-1.34v-1.717h1.34v-0.888
				c0-1.68,0.896-2.783,2.568-2.783c0.643,0,1.157,0.122,1.59,0.308L281.595,466.547z"/>
			<path id="XMLID_334_" style="fill:#1C1C1B;" d="M286.298,469.879c-0.177-0.03-0.358-0.046-0.526-0.046
				c-0.896,0-1.51,0.548-1.51,1.614v3.908h-1.932v-7.172h1.873v0.785c0.451-0.673,1.14-0.977,2.021-0.977
				c0.414,0,0.848,0.128,1.094,0.337L286.298,469.879z"/>
			<path id="XMLID_331_" style="fill:#1C1C1B;" d="M293.965,471.757c0,0.222-0.015,0.489-0.037,0.651h-5.085
				c0.207,1.036,0.933,1.488,1.843,1.488c0.622,0,1.295-0.252,1.813-0.688l1.132,1.243c-0.814,0.748-1.85,1.088-3.057,1.088
				c-2.198,0-3.723-1.495-3.723-3.753c0-2.258,1.48-3.797,3.627-3.797C292.544,467.99,293.958,469.522,293.965,471.757z
				 M288.851,471.091h3.175c-0.177-0.918-0.733-1.436-1.562-1.436C289.554,469.655,289.021,470.203,288.851,471.091z"/>
			<path id="XMLID_328_" style="fill:#1C1C1B;" d="M301.618,471.757c0,0.222-0.015,0.489-0.037,0.651h-5.085
				c0.207,1.036,0.933,1.488,1.843,1.488c0.622,0,1.295-0.252,1.813-0.688l1.132,1.243c-0.814,0.748-1.85,1.088-3.057,1.088
				c-2.198,0-3.723-1.495-3.723-3.753c0-2.258,1.48-3.797,3.627-3.797C300.197,467.99,301.611,469.522,301.618,471.757z
				 M296.504,471.091h3.175c-0.178-0.918-0.733-1.436-1.562-1.436C297.207,469.655,296.674,470.203,296.504,471.091z"/>
			<path id="XMLID_325_" style="fill:#1C1C1B;" d="M309.964,471.764c0,2.154-1.495,3.775-3.471,3.775
				c-0.962,0-1.643-0.378-2.109-0.933v3.708h-1.924v-10.133h1.887v0.792c0.466-0.585,1.155-0.984,2.139-0.984
				C308.469,467.99,309.964,469.61,309.964,471.764z M304.287,471.764c0,1.132,0.747,1.976,1.843,1.976
				c1.14,0,1.85-0.881,1.85-1.976c0-1.095-0.71-1.976-1.85-1.976C305.035,469.788,304.287,470.632,304.287,471.764z"/>
			<path id="XMLID_322_" style="fill:#1C1C1B;" d="M313.068,465.836c0,0.696-0.54,1.229-1.236,1.229
				c-0.696,0-1.229-0.533-1.229-1.229c0-0.696,0.533-1.243,1.229-1.243C312.527,464.592,313.068,465.14,313.068,465.836z
				 M312.809,475.354h-1.932v-7.172h1.932V475.354z"/>
			<path id="XMLID_320_" style="fill:#1C1C1B;" d="M316.032,470.736l2.701-2.554h2.368l-3.479,3.375l3.501,3.797h-2.376
				l-2.716-2.901v2.901H314.1v-10.658h1.932V470.736z"/>
		</g>
		<g>
			<path style="fill:#1C1C1B;" d="M184.412,475.289v-1.055c-0.527,0.718-1.391,1.23-2.387,1.23c-1.846,0-3.149-1.406-3.149-3.706
				c0-2.256,1.289-3.721,3.149-3.721c0.952,0,1.816,0.469,2.387,1.245v-3.765h1.099v9.77H184.412z M184.412,473.37v-3.208
				c-0.395-0.615-1.245-1.143-2.124-1.143c-1.421,0-2.27,1.172-2.27,2.739c0,1.567,0.85,2.724,2.27,2.724
				C183.168,474.483,184.017,473.986,184.412,473.37z"/>
			<path style="fill:#1C1C1B;" d="M186.932,471.744c0-2.051,1.465-3.706,3.486-3.706c2.139,0,3.398,1.67,3.398,3.794v0.279h-5.727
				c0.088,1.333,1.025,2.446,2.549,2.446c0.805,0,1.626-0.322,2.182-0.894l0.527,0.718c-0.703,0.703-1.655,1.084-2.812,1.084
				C188.44,475.465,186.932,473.956,186.932,471.744z M190.403,468.947c-1.509,0-2.256,1.274-2.314,2.358h4.643
				C192.718,470.25,192.015,468.947,190.403,468.947z"/>
			<path style="fill:#1C1C1B;" d="M194.607,474.351l0.571-0.791c0.469,0.542,1.362,1.011,2.329,1.011c1.084,0,1.67-0.513,1.67-1.216
				c0-1.714-4.38-0.659-4.38-3.281c0-1.098,0.952-2.036,2.636-2.036c1.201,0,2.051,0.454,2.622,1.026l-0.513,0.762
				c-0.424-0.513-1.201-0.894-2.109-0.894c-0.967,0-1.567,0.483-1.567,1.113c0,1.552,4.38,0.527,4.38,3.281
				c0,1.187-0.952,2.138-2.783,2.138C196.306,475.465,195.325,475.113,194.607,474.351z"/>
			<path style="fill:#1C1C1B;" d="M201.477,466.471c0-0.41,0.337-0.747,0.732-0.747c0.41,0,0.747,0.337,0.747,0.747
				c0,0.41-0.337,0.732-0.747,0.732C201.814,467.203,201.477,466.881,201.477,466.471z M201.667,475.289v-7.075h1.099v7.075H201.667
				z"/>
			<path style="fill:#1C1C1B;" d="M204.582,477.105l0.556-0.82c0.586,0.703,1.289,0.967,2.3,0.967c1.172,0,2.27-0.571,2.27-2.124
				v-1.011c-0.513,0.718-1.377,1.26-2.373,1.26c-1.845,0-3.149-1.377-3.149-3.662c0-2.27,1.289-3.677,3.149-3.677
				c0.952,0,1.802,0.469,2.373,1.245v-1.069h1.098v6.87c0,2.344-1.641,3.076-3.369,3.076
				C206.237,478.16,205.417,477.926,204.582,477.105z M209.709,473.253v-3.091c-0.381-0.615-1.23-1.143-2.109-1.143
				c-1.421,0-2.27,1.128-2.27,2.695c0,1.553,0.849,2.695,2.27,2.695C208.478,474.41,209.328,473.868,209.709,473.253z"/>
			<path style="fill:#1C1C1B;" d="M217.413,475.289v-4.629c0-1.245-0.63-1.641-1.582-1.641c-0.865,0-1.685,0.527-2.095,1.099v5.17
				h-1.099v-7.075h1.099v1.025c0.498-0.586,1.465-1.201,2.519-1.201c1.48,0,2.256,0.747,2.256,2.285v4.966H217.413z"/>
			<path style="fill:#1C1C1B;" d="M219.932,471.744c0-2.051,1.465-3.706,3.486-3.706c2.139,0,3.398,1.67,3.398,3.794v0.279h-5.727
				c0.088,1.333,1.025,2.446,2.549,2.446c0.806,0,1.626-0.322,2.183-0.894l0.527,0.718c-0.703,0.703-1.655,1.084-2.812,1.084
				C221.441,475.465,219.932,473.956,219.932,471.744z M223.404,468.947c-1.509,0-2.256,1.274-2.314,2.358h4.643
				C225.718,470.25,225.015,468.947,223.404,468.947z"/>
			<path style="fill:#1C1C1B;" d="M233.35,475.289v-1.055c-0.527,0.718-1.392,1.23-2.388,1.23c-1.846,0-3.149-1.406-3.149-3.706
				c0-2.256,1.289-3.721,3.149-3.721c0.952,0,1.817,0.469,2.388,1.245v-3.765h1.098v9.77H233.35z M233.35,473.37v-3.208
				c-0.396-0.615-1.245-1.143-2.124-1.143c-1.421,0-2.27,1.172-2.27,2.739c0,1.567,0.849,2.724,2.27,2.724
				C232.105,474.483,232.954,473.986,233.35,473.37z"/>
			<path style="fill:#1C1C1B;" d="M239.692,475.289v-9.77h1.098v3.765c0.572-0.776,1.421-1.245,2.388-1.245
				c1.845,0,3.149,1.465,3.149,3.721c0,2.299-1.304,3.706-3.149,3.706c-0.996,0-1.86-0.513-2.388-1.23v1.055H239.692z
				 M242.9,474.483c1.436,0,2.285-1.157,2.285-2.724c0-1.568-0.85-2.739-2.285-2.739c-0.864,0-1.728,0.527-2.109,1.143v3.208
				C241.171,473.986,242.036,474.483,242.9,474.483z"/>
			<path style="fill:#1C1C1B;" d="M247.528,477.061c0.161,0.073,0.425,0.117,0.601,0.117c0.483,0,0.805-0.161,1.055-0.747
				l0.469-1.069l-2.959-7.148h1.187l2.358,5.8l2.344-5.8h1.201l-3.545,8.51c-0.425,1.025-1.143,1.421-2.08,1.435
				c-0.234,0-0.601-0.044-0.806-0.103L247.528,477.061z"/>
		</g>
	</g>
</g>
</svg>
